<?xml version="1.0" encoding="UTF-8"?>
<svg version="1.1" xmlns="http://www.w3.org/2000/svg" width="598" height="417">
<path d="M0 0 C1.05477539 0.55397461 1.05477539 0.55397461 2.13085938 1.11914062 C5.7957719 3.06454497 9.40668325 5.08775995 12.96484375 7.22265625 C13.6312085 7.62234619 14.29757324 8.02203613 14.98413086 8.43383789 C15.70354858 8.99252563 15.70354858 8.99252563 16.4375 9.5625 C16.4375 10.2225 16.4375 10.8825 16.4375 11.5625 C17.12070312 11.77390625 17.80390625 11.9853125 18.5078125 12.203125 C22.36187459 13.99140981 25.15564888 16.50488838 28.3125 19.3125 C28.89902344 19.82554688 29.48554688 20.33859375 30.08984375 20.8671875 C31.27594112 21.90469685 32.45953664 22.94507325 33.640625 23.98828125 C35.47008886 25.59105067 37.32282477 27.1634848 39.1796875 28.734375 C50.46319936 38.39515337 59.92713748 51.84360866 67.4375 64.5625 C67.79054199 65.14725098 68.14358398 65.73200195 68.50732422 66.33447266 C74.36489013 76.07376881 78.77537347 85.81392082 82.4375 96.5625 C82.73140625 97.3565625 83.0253125 98.150625 83.328125 98.96875 C85.11851781 103.92090033 86.33635703 109.01021652 87.5625 114.125 C87.73346191 114.83390381 87.90442383 115.54280762 88.08056641 116.27319336 C88.32299072 117.31552124 88.32299072 117.31552124 88.5703125 118.37890625 C88.78518311 119.29845093 88.78518311 119.29845093 89.00439453 120.23657227 C90.23080535 126.82282699 90.60616545 133.25166659 90.640625 139.93359375 C90.64632507 140.81418961 90.65202515 141.69478546 90.65789795 142.60206604 C90.66729704 144.46020324 90.67386153 146.31835673 90.67773438 148.17651367 C90.68736541 150.96108744 90.71840679 153.74489806 90.75 156.52929688 C90.9864416 196.54314136 75.0280537 232.68627799 50.4375 263.5625 C49.73496094 264.45195312 49.03242188 265.34140625 48.30859375 266.2578125 C46.17130999 268.89037497 43.93176842 271.26514751 41.4375 273.5625 C40.7775 273.5625 40.1175 273.5625 39.4375 273.5625 C39.17582031 274.15804688 38.91414063 274.75359375 38.64453125 275.3671875 C27.34502504 295.91839297 -9.26909856 310.65924336 -30.375 317.125 C-66.74952798 327.5317145 -105.9770887 326.64432412 -141.5625 313.5625 C-142.61953125 313.18480469 -143.6765625 312.80710937 -144.765625 312.41796875 C-159.51350687 306.71626032 -173.03473254 298.10598539 -185.5625 288.5625 C-186.58085937 287.79164063 -187.59921875 287.02078125 -188.6484375 286.2265625 C-193.73909604 282.27666778 -193.73909604 282.27666778 -195.5625 280.5625 C-195.5625 279.9025 -195.5625 279.2425 -195.5625 278.5625 C-196.12839844 278.32015625 -196.69429687 278.0778125 -197.27734375 277.828125 C-209.85568181 270.86166085 -219.66320802 254.59931406 -226.80859375 242.5 C-228.02387725 240.46460314 -229.30398548 238.46706012 -230.6328125 236.50390625 C-236.01357204 228.30206023 -239.13733487 218.70002933 -242.5625 209.5625 C-242.913125 208.69238281 -243.26375 207.82226562 -243.625 206.92578125 C-245.8696366 201.20020429 -247.40373398 195.42602031 -248.75 189.4375 C-248.91701416 188.69733643 -249.08402832 187.95717285 -249.25610352 187.19458008 C-251.02033587 179.00356613 -251.71973891 170.90078645 -251.765625 162.53125 C-251.77417511 161.27906677 -251.77417511 161.27906677 -251.78289795 160.00158691 C-251.79228085 158.24358357 -251.79885495 156.48556317 -251.80273438 154.72753906 C-251.81237477 152.09667537 -251.8434358 149.46661652 -251.875 146.8359375 C-252.15658397 101.71568617 -232.22286303 61.64323129 -201.5625 29.5625 C-200.83804688 28.79035156 -200.11359375 28.01820312 -199.3671875 27.22265625 C-197.5625 25.5625 -197.5625 25.5625 -195.5625 25.5625 C-195.2325 24.5725 -194.9025 23.5825 -194.5625 22.5625 C-192.72152609 20.93898741 -190.8997236 19.46303392 -188.9375 18 C-188.35846924 17.56381348 -187.77943848 17.12762695 -187.18286133 16.67822266 C-170.75375191 4.43485962 -153.93690039 -4.73174898 -134.5625 -11.4375 C-133.55574219 -11.80617188 -132.54898438 -12.17484375 -131.51171875 -12.5546875 C-88.89751042 -27.11689379 -39.2423131 -20.94128966 0 0 Z " fill="#B6B5BB" transform="translate(379.5625,56.4375)"/>
</svg>
